REM DIRINDEX 1\2\6,1\2\7,1\2\8,1\2\9,1\3\10,1\3\11,1\4\12,1\4\13,1\4\14,1\5\15,1\5\16,1\5\17
REM DIRNAME folder01,folder02,folder03,folder04,folder05,folder06,folder07,folder08,folder09,folder10,folder11,folder12,folder13,folder14,folder15,folder16,folder17
TITLE ""
FILE "1400_3_sec13_1201_1215.mp3" MP3
  TRACK 01 AUDIO
    TITLE "0:"
    INDEX 01 00:00:00
  TRACK 02 AUDIO
    TITLE "15:cjc029_6841"
    INDEX 01 00:00:15
  TRACK 03 AUDIO
    TITLE "0:"
    INDEX 01 00:02:02
  TRACK 04 AUDIO
    TITLE "17:cjc029_6842"
    INDEX 01 00:03:08
  TRACK 05 AUDIO
    TITLE "0:"
    INDEX 01 00:05:59
  TRACK 06 AUDIO
    TITLE "16:cjc029_6843"
    INDEX 01 00:05:65
  TRACK 07 AUDIO
    TITLE "0:"
    INDEX 01 00:07:05
  TRACK 08 AUDIO
    TITLE "17:cjc029_6844"
    INDEX 01 00:07:66
  TRACK 09 AUDIO
    TITLE "0:"
    INDEX 01 00:08:64
  TRACK 10 AUDIO
    TITLE "16:cjc029_6845"
    INDEX 01 00:08:72
  TRACK 11 AUDIO
    TITLE "0:"
    INDEX 01 00:10:14
  TRACK 12 AUDIO
    TITLE "17:cjc029_6846"
    INDEX 01 00:10:74
  TRACK 13 AUDIO
    TITLE "0:"
    INDEX 01 00:12:28
  TRACK 14 AUDIO
    TITLE "16:cjc029_6847"
    INDEX 01 00:12:32
  TRACK 15 AUDIO
    TITLE "0:"
    INDEX 01 00:13:57
  TRACK 16 AUDIO
    TITLE "17:cjc029_6848"
    INDEX 01 00:14:39
  TRACK 17 AUDIO
    TITLE "0:"
    INDEX 01 00:15:60
  TRACK 18 AUDIO
    TITLE "16:cjc029_6849"
    INDEX 01 00:15:68
  TRACK 19 AUDIO
    TITLE "0:"
    INDEX 01 00:17:06
  TRACK 20 AUDIO
    TITLE "17:cjc029_6850"
    INDEX 01 00:17:67
  TRACK 21 AUDIO
    TITLE "0:"
    INDEX 01 00:19:52
  TRACK 22 AUDIO
    TITLE "16:cjc029_6851"
    INDEX 01 00:19:58
  TRACK 23 AUDIO
    TITLE "0:"
    INDEX 01 00:21:02
  TRACK 24 AUDIO
    TITLE "17:cjc029_6852"
    INDEX 01 00:21:62
  TRACK 25 AUDIO
    TITLE "0:"
    INDEX 01 00:23:18
  TRACK 26 AUDIO
    TITLE "16:cjc029_6853"
    INDEX 01 00:23:22
  TRACK 27 AUDIO
    TITLE "0:"
    INDEX 01 00:24:20
  TRACK 28 AUDIO
    TITLE "17:cjc029_6854"
    INDEX 01 00:25:07
  TRACK 29 AUDIO
    TITLE "0:"
    INDEX 01 00:26:36
  TRACK 30 AUDIO
    TITLE "16:cjc029_6855"
    INDEX 01 00:26:40
  TRACK 31 AUDIO
    TITLE "0:"
    INDEX 01 00:27:59
  TRACK 32 AUDIO
    TITLE "17:cjc029_6856"
    INDEX 01 00:28:39
  TRACK 33 AUDIO
    TITLE "0:"
    INDEX 01 00:29:52
  TRACK 34 AUDIO
    TITLE "16:cjc029_6857"
    INDEX 01 00:29:60
  TRACK 35 AUDIO
    TITLE "0:"
    INDEX 01 00:31:10
  TRACK 36 AUDIO
    TITLE "17:cjc029_6858"
    INDEX 01 00:31:73
  TRACK 37 AUDIO
    TITLE "0:"
    INDEX 01 00:33:44
  TRACK 38 AUDIO
    TITLE "16:cjc029_6859"
    INDEX 01 00:33:50
  TRACK 39 AUDIO
    TITLE "0:"
    INDEX 01 00:34:49
  TRACK 40 AUDIO
    TITLE "17:cjc029_6860"
    INDEX 01 00:35:33
  TRACK 41 AUDIO
    TITLE "0:"
    INDEX 01 00:36:48
  TRACK 42 AUDIO
    TITLE "16:cjc029_6861"
    INDEX 01 00:36:54
  TRACK 43 AUDIO
    TITLE "0:"
    INDEX 01 00:37:69
  TRACK 44 AUDIO
    TITLE "17:cjc029_6862"
    INDEX 01 00:38:53
  TRACK 45 AUDIO
    TITLE "0:"
    INDEX 01 00:40:17
  TRACK 46 AUDIO
    TITLE "16:cjc029_6863"
    INDEX 01 00:40:24
  TRACK 47 AUDIO
    TITLE "0:"
    INDEX 01 00:41:24
  TRACK 48 AUDIO
    TITLE "17:cjc029_6864"
    INDEX 01 00:42:10
  TRACK 49 AUDIO
    TITLE "0:"
    INDEX 01 00:44:22
  TRACK 50 AUDIO
    TITLE "16:cjc029_6865"
    INDEX 01 00:44:28
  TRACK 51 AUDIO
    TITLE "0:"
    INDEX 01 00:45:33
  TRACK 52 AUDIO
    TITLE "17:cjc029_6866"
    INDEX 01 00:46:17
  TRACK 53 AUDIO
    TITLE "0:"
    INDEX 01 00:48:30
  TRACK 54 AUDIO
    TITLE "16:cjc029_6867"
    INDEX 01 00:48:38
  TRACK 55 AUDIO
    TITLE "0:"
    INDEX 01 00:49:41
  TRACK 56 AUDIO
    TITLE "17:cjc029_6868"
    INDEX 01 00:50:23
  TRACK 57 AUDIO
    TITLE "0:"
    INDEX 01 00:51:15
  TRACK 58 AUDIO
    TITLE "16:cjc029_6869"
    INDEX 01 00:51:22
  TRACK 59 AUDIO
    TITLE "0:"
    INDEX 01 00:52:22
  TRACK 60 AUDIO
    TITLE "17:cjc029_6870"
    INDEX 01 00:53:08
  TRACK 61 AUDIO
    TITLE "0:"
    INDEX 01 00:55:34
  TRACK 62 AUDIO
    TITLE "16:cjc029_6871"
    INDEX 01 00:55:42
  TRACK 63 AUDIO
    TITLE "0:"
    INDEX 01 00:56:47
